<svg width="465" height="99" viewBox="0 0 465 99" fill="none" xmlns="http://www.w3.org/2000/svg">
<path d="M19.625 6V97H0.875V6H19.625ZM55.875 44.875V59.5H14.5V44.875H55.875ZM60.25 6V20.6875H14.5V6H60.25ZM89 29.375V97H70.9375V29.375H89ZM69.8125 11.75C69.8125 9.125 70.7292 6.95833 72.5625 5.25C74.3958 3.54167 76.8542 2.6875 79.9375 2.6875C82.9792 2.6875 85.4167 3.54167 87.25 5.25C89.125 6.95833 90.0625 9.125 90.0625 11.75C90.0625 14.375 89.125 16.5417 87.25 18.25C85.4167 19.9583 82.9792 20.8125 79.9375 20.8125C76.8542 20.8125 74.3958 19.9583 72.5625 18.25C70.7292 16.5417 69.8125 14.375 69.8125 11.75ZM121.5 43.8125V97H103.5V29.375H120.375L121.5 43.8125ZM118.875 60.8125H114C114 55.8125 114.646 51.3125 115.938 47.3125C117.229 43.2708 119.042 39.8333 121.375 37C123.708 34.125 126.479 31.9375 129.688 30.4375C132.938 28.8958 136.562 28.125 140.562 28.125C143.729 28.125 146.625 28.5833 149.25 29.5C151.875 30.4167 154.125 31.875 156 33.875C157.917 35.875 159.375 38.5208 160.375 41.8125C161.417 45.1042 161.938 49.125 161.938 53.875V97H143.812V53.8125C143.812 50.8125 143.396 48.4792 142.562 46.8125C141.729 45.1458 140.5 43.9792 138.875 43.3125C137.292 42.6042 135.333 42.25 133 42.25C130.583 42.25 128.479 42.7292 126.688 43.6875C124.938 44.6458 123.479 45.9792 122.312 47.6875C121.188 49.3542 120.333 51.3125 119.75 53.5625C119.167 55.8125 118.875 58.2292 118.875 60.8125Z" fill="#FF0000"/>
<path d="M212.375 57.0625H189L188.875 44.1875H208.5C211.958 44.1875 214.792 43.75 217 42.875C219.208 41.9583 220.854 40.6458 221.938 38.9375C223.062 37.1875 223.625 35.0625 223.625 32.5625C223.625 29.7292 223.083 27.4375 222 25.6875C220.958 23.9375 219.312 22.6667 217.062 21.875C214.854 21.0833 212 20.6875 208.5 20.6875H195.5V97H176.75V6H208.5C213.792 6 218.521 6.5 222.688 7.5C226.896 8.5 230.458 10.0208 233.375 12.0625C236.292 14.1042 238.521 16.6875 240.062 19.8125C241.604 22.8958 242.375 26.5625 242.375 30.8125C242.375 34.5625 241.521 38.0208 239.812 41.1875C238.146 44.3542 235.5 46.9375 231.875 48.9375C228.292 50.9375 223.604 52.0417 217.812 52.25L212.375 57.0625ZM211.562 97H183.875L191.188 82.375H211.562C214.854 82.375 217.542 81.8542 219.625 80.8125C221.708 79.7292 223.25 78.2708 224.25 76.4375C225.25 74.6042 225.75 72.5 225.75 70.125C225.75 67.4583 225.292 65.1458 224.375 63.1875C223.5 61.2292 222.083 59.7292 220.125 58.6875C218.167 57.6042 215.583 57.0625 212.375 57.0625H194.312L194.438 44.1875H216.938L221.25 49.25C226.792 49.1667 231.25 50.1458 234.625 52.1875C238.042 54.1875 240.521 56.7917 242.062 60C243.646 63.2083 244.438 66.6458 244.438 70.3125C244.438 76.1458 243.167 81.0625 240.625 85.0625C238.083 89.0208 234.354 92 229.438 94C224.562 96 218.604 97 211.562 97ZM254.5 63.875V62.5625C254.5 57.6042 255.208 53.0417 256.625 48.875C258.042 44.6667 260.104 41.0208 262.812 37.9375C265.521 34.8542 268.854 32.4583 272.812 30.75C276.771 29 281.312 28.125 286.438 28.125C291.562 28.125 296.125 29 300.125 30.75C304.125 32.4583 307.479 34.8542 310.188 37.9375C312.938 41.0208 315.021 44.6667 316.438 48.875C317.854 53.0417 318.562 57.6042 318.562 62.5625V63.875C318.562 68.7917 317.854 73.3542 316.438 77.5625C315.021 81.7292 312.938 85.375 310.188 88.5C307.479 91.5833 304.146 93.9792 300.188 95.6875C296.229 97.3958 291.688 98.25 286.562 98.25C281.438 98.25 276.875 97.3958 272.875 95.6875C268.917 93.9792 265.562 91.5833 262.812 88.5C260.104 85.375 258.042 81.7292 256.625 77.5625C255.208 73.3542 254.5 68.7917 254.5 63.875ZM272.5 62.5625V63.875C272.5 66.7083 272.75 69.3542 273.25 71.8125C273.75 74.2708 274.542 76.4375 275.625 78.3125C276.75 80.1458 278.208 81.5833 280 82.625C281.792 83.6667 283.979 84.1875 286.562 84.1875C289.062 84.1875 291.208 83.6667 293 82.625C294.792 81.5833 296.229 80.1458 297.312 78.3125C298.396 76.4375 299.188 74.2708 299.688 71.8125C300.229 69.3542 300.5 66.7083 300.5 63.875V62.5625C300.5 59.8125 300.229 57.2292 299.688 54.8125C299.188 52.3542 298.375 50.1875 297.25 48.3125C296.167 46.3958 294.729 44.8958 292.938 43.8125C291.146 42.7292 288.979 42.1875 286.438 42.1875C283.896 42.1875 281.729 42.7292 279.938 43.8125C278.188 44.8958 276.75 46.3958 275.625 48.3125C274.542 50.1875 273.75 52.3542 273.25 54.8125C272.75 57.2292 272.5 59.8125 272.5 62.5625ZM326.75 63.875V62.5625C326.75 57.6042 327.458 53.0417 328.875 48.875C330.292 44.6667 332.354 41.0208 335.062 37.9375C337.771 34.8542 341.104 32.4583 345.062 30.75C349.021 29 353.562 28.125 358.688 28.125C363.812 28.125 368.375 29 372.375 30.75C376.375 32.4583 379.729 34.8542 382.438 37.9375C385.188 41.0208 387.271 44.6667 388.688 48.875C390.104 53.0417 390.812 57.6042 390.812 62.5625V63.875C390.812 68.7917 390.104 73.3542 388.688 77.5625C387.271 81.7292 385.188 85.375 382.438 88.5C379.729 91.5833 376.396 93.9792 372.438 95.6875C368.479 97.3958 363.938 98.25 358.812 98.25C353.688 98.25 349.125 97.3958 345.125 95.6875C341.167 93.9792 337.812 91.5833 335.062 88.5C332.354 85.375 330.292 81.7292 328.875 77.5625C327.458 73.3542 326.75 68.7917 326.75 63.875ZM344.75 62.5625V63.875C344.75 66.7083 345 69.3542 345.5 71.8125C346 74.2708 346.792 76.4375 347.875 78.3125C349 80.1458 350.458 81.5833 352.25 82.625C354.042 83.6667 356.229 84.1875 358.812 84.1875C361.312 84.1875 363.458 83.6667 365.25 82.625C367.042 81.5833 368.479 80.1458 369.562 78.3125C370.646 76.4375 371.438 74.2708 371.938 71.8125C372.479 69.3542 372.75 66.7083 372.75 63.875V62.5625C372.75 59.8125 372.479 57.2292 371.938 54.8125C371.438 52.3542 370.625 50.1875 369.5 48.3125C368.417 46.3958 366.979 44.8958 365.188 43.8125C363.396 42.7292 361.229 42.1875 358.688 42.1875C356.146 42.1875 353.979 42.7292 352.188 43.8125C350.438 44.8958 349 46.3958 347.875 48.3125C346.792 50.1875 346 52.3542 345.5 54.8125C345 57.2292 344.75 59.8125 344.75 62.5625ZM419.875 0.9375V97H401.875V0.9375H419.875ZM462.5 29.375L433.125 62.875L417.375 78.8125L410.812 65.8125L423.312 49.9375L440.875 29.375H462.5ZM443.812 97L423.812 65.75L436.25 54.875L464.562 97H443.812Z" fill="#2196F3"/>
</svg>
